<svg width="31" height="30" viewBox="0 0 31 30" fill="none" xmlns="http://www.w3.org/2000/svg">
<path fill-rule="evenodd" clip-rule="evenodd" d="M28.8412 15C29.4153 15 29.9716 14.9229 30.5 14.7785C30.0799 14.6899 29.6443 14.6433 29.1979 14.6433H21.7782C20.5527 14.6433 19.4092 14.2922 18.4429 13.685C18.6541 12.4484 19.2369 11.263 20.1915 10.3084L24.9337 5.56641C25.3397 5.16036 25.6784 4.71253 25.9501 4.23678C25.5902 4.47119 25.2493 4.74624 24.9337 5.06194L19.6871 10.3084C18.8206 11.175 17.7637 11.7353 16.6511 11.9893C15.926 10.9655 15.5 9.71507 15.5 8.36513V1.6589C15.5 1.08466 15.4229 0.528435 15.2785 0C15.1899 0.420107 15.1433 0.855699 15.1433 1.30218V8.72184C15.1433 9.94733 14.7922 11.0908 14.185 12.0572C12.9485 11.8459 11.763 11.263 10.8084 10.3084L6.06641 5.56641C5.66036 5.16036 5.21253 4.82156 4.73678 4.55001C4.97119 4.90973 5.24624 5.25071 5.56194 5.56641L10.8084 10.8129C11.675 11.6795 12.2353 12.7363 12.4893 13.8489C11.4655 14.5739 10.2151 15 8.86513 15H2.1589C1.58466 15 1.02843 15.0771 0.5 15.2215C0.92011 15.3101 1.3557 15.3567 1.80218 15.3567H9.22184C10.4473 15.3567 11.5908 15.7079 12.5572 16.3151C12.3459 17.5515 11.763 18.7369 10.8084 19.6915L6.06641 24.4337C5.66038 24.8397 5.32157 25.2875 5.05002 25.7633C5.40974 25.5288 5.75071 25.2537 6.06641 24.9381L11.3129 19.6915C12.1795 18.825 13.2363 18.2648 14.3489 18.0107C15.0739 19.0345 15.5 20.285 15.5 21.635V28.3412C15.5 28.9153 15.5771 29.4716 15.7215 30C15.8101 29.5799 15.8567 29.1443 15.8567 28.6979V21.2781C15.8567 20.0526 16.2079 18.9092 16.8151 17.9429C18.0515 18.1541 19.2369 18.7369 20.1915 19.6915L24.9337 24.4337C25.3397 24.8397 25.7875 25.1784 26.2633 25.4501C26.0288 25.0902 25.7537 24.7493 25.4381 24.4337L20.1915 19.1871C19.325 18.3206 18.7648 17.2637 18.5108 16.1511C19.5345 15.426 20.785 15 22.135 15H28.8412Z" fill="#AFA1F7"/>
</svg>
